<svg width="19" height="25" viewBox="0 0 19 25" fill="none" xmlns="http://www.w3.org/2000/svg">
<path d="M18.05 12.0001H1.8677L7.79 4.21513C7.82568 4.16818 7.85398 4.11245 7.87329 4.05111C7.8926 3.98977 7.90254 3.92403 7.90254 3.85763C7.90254 3.79124 7.8926 3.72549 7.87329 3.66415C7.85398 3.60281 7.82568 3.54708 7.79 3.50013C7.75432 3.45318 7.71196 3.41594 7.66534 3.39054C7.61873 3.36513 7.56876 3.35205 7.5183 3.35205C7.46784 3.35205 7.41788 3.36513 7.37126 3.39054C7.32464 3.41594 7.28228 3.45318 7.2466 3.50013L0.6821 12.1451C0.664125 12.1686 0.648193 12.1946 0.6346 12.2226C0.628209 12.2346 0.622493 12.2471 0.6175 12.2601L0.5985 12.3101L0.5871 12.3601C0.586008 12.3743 0.586008 12.3885 0.5871 12.4026C0.577374 12.467 0.577374 12.5333 0.5871 12.5976C0.586008 12.6118 0.586008 12.626 0.5871 12.6401L0.5985 12.6901L0.6175 12.7401C0.622493 12.7532 0.628209 12.7657 0.6346 12.7776C0.648193 12.8057 0.664125 12.8317 0.6821 12.8551L7.2466 21.5001C7.28199 21.5478 7.32425 21.5856 7.37091 21.6114C7.41757 21.6373 7.46768 21.6506 7.5183 21.6506C7.56892 21.6506 7.61903 21.6373 7.66569 21.6114C7.71235 21.5856 7.75461 21.5478 7.79 21.5001C7.82533 21.4537 7.85336 21.3986 7.87248 21.3379C7.89161 21.2772 7.90145 21.2121 7.90145 21.1464C7.90145 21.0807 7.89161 21.0156 7.87248 20.9549C7.85336 20.8942 7.82533 20.8391 7.79 20.7926L1.8677 13.0001H18.05C18.1508 13.0001 18.2474 12.9475 18.3187 12.8537C18.39 12.7599 18.43 12.6327 18.43 12.5001C18.43 12.3675 18.39 12.2403 18.3187 12.1466C18.2474 12.0528 18.1508 12.0001 18.05 12.0001Z" fill="black"/>
</svg>
